<mxfile host="app.diagrams.net" agent="Mozilla/5.0 (Windows NT 10.0; Win64; x64) AppleWebKit/537.36 (KHTML, like Gecko) Chrome/131.0.0.0 Safari/537.36" version="25.0.3">
  <diagram name="Page-1" id="bFQE40P8WnkGXO0q-xvd">
    <mxGraphModel dx="1300" dy="720" grid="1" gridSize="10" guides="1" tooltips="1" connect="1" arrows="1" fold="1" page="1" pageScale="1" pageWidth="850" pageHeight="1100" math="0" shadow="0">
      <root>
        <mxCell id="0" />
        <mxCell id="1" parent="0" />
        <mxCell id="5a1hey1uRcF0JdrdRJW9-1" value="Task" style="whiteSpace=wrap;html=1;align=center;fillColor=none;" vertex="1" parent="1">
          <mxGeometry x="125" y="750" width="100" height="40" as="geometry" />
        </mxCell>
        <mxCell id="5a1hey1uRcF0JdrdRJW9-2" value="Medical Document" style="whiteSpace=wrap;html=1;align=center;fillColor=none;" vertex="1" parent="1">
          <mxGeometry x="685" y="884.41" width="100" height="40" as="geometry" />
        </mxCell>
        <mxCell id="5a1hey1uRcF0JdrdRJW9-3" value="Calendar Event" style="whiteSpace=wrap;html=1;align=center;fillColor=none;" vertex="1" parent="1">
          <mxGeometry x="265.65999999999997" y="950" width="100" height="40" as="geometry" />
        </mxCell>
        <mxCell id="5a1hey1uRcF0JdrdRJW9-4" value="Report" style="whiteSpace=wrap;html=1;align=center;fillColor=none;" vertex="1" parent="1">
          <mxGeometry x="672.5" y="118" width="100" height="40" as="geometry" />
        </mxCell>
        <mxCell id="5a1hey1uRcF0JdrdRJW9-5" value="Administrator" style="whiteSpace=wrap;html=1;align=center;fillColor=none;" vertex="1" parent="1">
          <mxGeometry x="355" y="118" width="100" height="40" as="geometry" />
        </mxCell>
        <mxCell id="5a1hey1uRcF0JdrdRJW9-6" value="Feedback" style="whiteSpace=wrap;html=1;align=center;fillColor=none;" vertex="1" parent="1">
          <mxGeometry x="125" y="160" width="100" height="40" as="geometry" />
        </mxCell>
        <mxCell id="5a1hey1uRcF0JdrdRJW9-7" value="Training Log" style="whiteSpace=wrap;html=1;align=center;fillColor=none;" vertex="1" parent="1">
          <mxGeometry x="505" y="884.41" width="100" height="40" as="geometry" />
        </mxCell>
        <mxCell id="5a1hey1uRcF0JdrdRJW9-8" value="Trainee" style="whiteSpace=wrap;html=1;align=center;fillColor=none;" vertex="1" parent="1">
          <mxGeometry x="585" y="450" width="100" height="40" as="geometry" />
        </mxCell>
        <mxCell id="5a1hey1uRcF0JdrdRJW9-9" value="Trainer" style="whiteSpace=wrap;html=1;align=center;fillColor=none;" vertex="1" parent="1">
          <mxGeometry x="125" y="450" width="100" height="40" as="geometry" />
        </mxCell>
        <mxCell id="5a1hey1uRcF0JdrdRJW9-12" value="submits" style="shape=rhombus;perimeter=rhombusPerimeter;whiteSpace=wrap;html=1;align=center;fillColor=none;" vertex="1" parent="1">
          <mxGeometry x="585" y="560" width="120" height="60" as="geometry" />
        </mxCell>
        <mxCell id="5a1hey1uRcF0JdrdRJW9-13" value="shedules" style="shape=rhombus;perimeter=rhombusPerimeter;whiteSpace=wrap;html=1;align=center;fillColor=none;" vertex="1" parent="1">
          <mxGeometry x="256.46" y="818.16" width="120" height="60" as="geometry" />
        </mxCell>
        <mxCell id="5a1hey1uRcF0JdrdRJW9-15" value="assigns" style="shape=rhombus;perimeter=rhombusPerimeter;whiteSpace=wrap;html=1;align=center;fillColor=none;" vertex="1" parent="1">
          <mxGeometry x="115" y="600" width="120" height="60" as="geometry" />
        </mxCell>
        <mxCell id="5a1hey1uRcF0JdrdRJW9-16" value="generates" style="shape=rhombus;perimeter=rhombusPerimeter;whiteSpace=wrap;html=1;align=center;fillColor=none;" vertex="1" parent="1">
          <mxGeometry x="505" y="108" width="120" height="60" as="geometry" />
        </mxCell>
        <mxCell id="5a1hey1uRcF0JdrdRJW9-18" value="is given by" style="shape=rhombus;perimeter=rhombusPerimeter;whiteSpace=wrap;html=1;align=center;fillColor=none;" vertex="1" parent="1">
          <mxGeometry x="115" y="290" width="120" height="60" as="geometry" />
        </mxCell>
        <mxCell id="5a1hey1uRcF0JdrdRJW9-20" value="tracks" style="shape=rhombus;perimeter=rhombusPerimeter;whiteSpace=wrap;html=1;align=center;fillColor=none;" vertex="1" parent="1">
          <mxGeometry x="365" y="740" width="120" height="60" as="geometry" />
        </mxCell>
        <mxCell id="5a1hey1uRcF0JdrdRJW9-21" value="manages" style="shape=rhombus;perimeter=rhombusPerimeter;whiteSpace=wrap;html=1;align=center;fillColor=none;" vertex="1" parent="1">
          <mxGeometry x="345" y="200" width="120" height="60" as="geometry" />
        </mxCell>
        <mxCell id="5a1hey1uRcF0JdrdRJW9-22" value="" style="endArrow=none;html=1;rounded=0;entryX=0;entryY=0.5;entryDx=0;entryDy=0;exitX=1;exitY=0.5;exitDx=0;exitDy=0;" edge="1" parent="1" source="5a1hey1uRcF0JdrdRJW9-5" target="5a1hey1uRcF0JdrdRJW9-16">
          <mxGeometry relative="1" as="geometry">
            <mxPoint x="145" y="18" as="sourcePoint" />
            <mxPoint x="525" y="218" as="targetPoint" />
          </mxGeometry>
        </mxCell>
        <mxCell id="5a1hey1uRcF0JdrdRJW9-23" value="" style="endArrow=none;html=1;rounded=0;exitX=1;exitY=0.5;exitDx=0;exitDy=0;entryX=0;entryY=0.5;entryDx=0;entryDy=0;" edge="1" parent="1" source="5a1hey1uRcF0JdrdRJW9-16" target="5a1hey1uRcF0JdrdRJW9-4">
          <mxGeometry relative="1" as="geometry">
            <mxPoint x="365" y="218" as="sourcePoint" />
            <mxPoint x="305" y="28" as="targetPoint" />
          </mxGeometry>
        </mxCell>
        <mxCell id="5a1hey1uRcF0JdrdRJW9-24" value="" style="endArrow=none;html=1;rounded=0;exitX=0.5;exitY=1;exitDx=0;exitDy=0;entryX=0.5;entryY=0;entryDx=0;entryDy=0;" edge="1" parent="1" source="5a1hey1uRcF0JdrdRJW9-6" target="5a1hey1uRcF0JdrdRJW9-18">
          <mxGeometry relative="1" as="geometry">
            <mxPoint x="345" y="250" as="sourcePoint" />
            <mxPoint x="505" y="250" as="targetPoint" />
          </mxGeometry>
        </mxCell>
        <mxCell id="5a1hey1uRcF0JdrdRJW9-25" value="" style="endArrow=none;html=1;rounded=0;exitX=0.5;exitY=1;exitDx=0;exitDy=0;entryX=0.5;entryY=0;entryDx=0;entryDy=0;" edge="1" parent="1" source="5a1hey1uRcF0JdrdRJW9-18" target="5a1hey1uRcF0JdrdRJW9-9">
          <mxGeometry relative="1" as="geometry">
            <mxPoint x="174.17" y="360" as="sourcePoint" />
            <mxPoint x="174.17" y="450" as="targetPoint" />
          </mxGeometry>
        </mxCell>
        <mxCell id="5a1hey1uRcF0JdrdRJW9-26" value="" style="endArrow=none;html=1;rounded=0;exitX=0.5;exitY=1;exitDx=0;exitDy=0;entryX=0.5;entryY=0;entryDx=0;entryDy=0;" edge="1" parent="1" source="5a1hey1uRcF0JdrdRJW9-9" target="5a1hey1uRcF0JdrdRJW9-15">
          <mxGeometry relative="1" as="geometry">
            <mxPoint x="345" y="630" as="sourcePoint" />
            <mxPoint x="505" y="630" as="targetPoint" />
          </mxGeometry>
        </mxCell>
        <mxCell id="5a1hey1uRcF0JdrdRJW9-27" value="" style="endArrow=none;html=1;rounded=0;exitX=0.5;exitY=1;exitDx=0;exitDy=0;entryX=0.5;entryY=0;entryDx=0;entryDy=0;" edge="1" parent="1" source="5a1hey1uRcF0JdrdRJW9-15" target="5a1hey1uRcF0JdrdRJW9-1">
          <mxGeometry relative="1" as="geometry">
            <mxPoint x="345" y="780" as="sourcePoint" />
            <mxPoint x="505" y="780" as="targetPoint" />
          </mxGeometry>
        </mxCell>
        <mxCell id="5a1hey1uRcF0JdrdRJW9-28" value="" style="endArrow=none;html=1;rounded=0;exitX=0.5;exitY=1;exitDx=0;exitDy=0;entryX=0.5;entryY=0;entryDx=0;entryDy=0;" edge="1" parent="1" source="5a1hey1uRcF0JdrdRJW9-5" target="5a1hey1uRcF0JdrdRJW9-21">
          <mxGeometry relative="1" as="geometry">
            <mxPoint x="315" y="400" as="sourcePoint" />
            <mxPoint x="475" y="400" as="targetPoint" />
          </mxGeometry>
        </mxCell>
        <mxCell id="5a1hey1uRcF0JdrdRJW9-32" value="" style="endArrow=none;html=1;rounded=0;exitX=1;exitY=0.5;exitDx=0;exitDy=0;" edge="1" parent="1" source="5a1hey1uRcF0JdrdRJW9-1" target="5a1hey1uRcF0JdrdRJW9-20">
          <mxGeometry relative="1" as="geometry">
            <mxPoint x="325" y="570" as="sourcePoint" />
            <mxPoint x="485" y="570" as="targetPoint" />
          </mxGeometry>
        </mxCell>
        <mxCell id="5a1hey1uRcF0JdrdRJW9-33" value="" style="endArrow=none;html=1;rounded=0;exitX=1;exitY=0.5;exitDx=0;exitDy=0;entryX=0;entryY=0.75;entryDx=0;entryDy=0;" edge="1" parent="1" source="5a1hey1uRcF0JdrdRJW9-20" target="5a1hey1uRcF0JdrdRJW9-8">
          <mxGeometry relative="1" as="geometry">
            <mxPoint x="325" y="570" as="sourcePoint" />
            <mxPoint x="605" y="491" as="targetPoint" />
            <Array as="points">
              <mxPoint x="545" y="770" />
              <mxPoint x="545" y="620" />
              <mxPoint x="545" y="480" />
            </Array>
          </mxGeometry>
        </mxCell>
        <mxCell id="5a1hey1uRcF0JdrdRJW9-34" value="" style="endArrow=none;html=1;rounded=0;entryX=0.5;entryY=0;entryDx=0;entryDy=0;" edge="1" parent="1" target="5a1hey1uRcF0JdrdRJW9-12">
          <mxGeometry relative="1" as="geometry">
            <mxPoint x="645" y="490" as="sourcePoint" />
            <mxPoint x="695" y="770" as="targetPoint" />
          </mxGeometry>
        </mxCell>
        <mxCell id="5a1hey1uRcF0JdrdRJW9-35" value="" style="endArrow=none;html=1;rounded=0;exitX=0.5;exitY=0;exitDx=0;exitDy=0;entryX=0;entryY=1;entryDx=0;entryDy=0;" edge="1" parent="1">
          <mxGeometry relative="1" as="geometry">
            <mxPoint x="552.07" y="884.34" as="sourcePoint" />
            <mxPoint x="634.9989321881345" y="831.4110678118656" as="targetPoint" />
            <Array as="points" />
          </mxGeometry>
        </mxCell>
        <mxCell id="5a1hey1uRcF0JdrdRJW9-36" value="" style="endArrow=none;html=1;rounded=0;exitX=0.5;exitY=0;exitDx=0;exitDy=0;" edge="1" parent="1" source="5a1hey1uRcF0JdrdRJW9-2" target="5a1hey1uRcF0JdrdRJW9-49">
          <mxGeometry relative="1" as="geometry">
            <mxPoint x="485" y="794.41" as="sourcePoint" />
            <mxPoint x="645" y="844.41" as="targetPoint" />
            <Array as="points" />
          </mxGeometry>
        </mxCell>
        <mxCell id="5a1hey1uRcF0JdrdRJW9-42" value="1" style="resizable=0;html=1;whiteSpace=wrap;align=left;verticalAlign=bottom;direction=south;" connectable="0" vertex="1" parent="1">
          <mxGeometry x="274.9999999999999" y="530" as="geometry">
            <mxPoint x="-118" y="-18" as="offset" />
          </mxGeometry>
        </mxCell>
        <mxCell id="5a1hey1uRcF0JdrdRJW9-43" value="" style="resizable=0;html=1;whiteSpace=wrap;align=left;verticalAlign=bottom;" connectable="0" vertex="1" parent="1">
          <mxGeometry x="324.9999999999999" y="370" as="geometry">
            <mxPoint x="-158" y="220" as="offset" />
          </mxGeometry>
        </mxCell>
        <mxCell id="5a1hey1uRcF0JdrdRJW9-44" value="&lt;span style=&quot;text-wrap-mode: nowrap;&quot;&gt;M&lt;/span&gt;" style="text;whiteSpace=wrap;html=1;" vertex="1" parent="1">
          <mxGeometry x="225" y="750" width="40" height="40" as="geometry" />
        </mxCell>
        <mxCell id="5a1hey1uRcF0JdrdRJW9-45" value="&lt;span style=&quot;color: rgb(0, 0, 0); font-family: Helvetica; font-size: 12px; font-style: normal; font-variant-ligatures: normal; font-variant-caps: normal; font-weight: 400; letter-spacing: normal; orphans: 2; text-align: left; text-indent: 0px; text-transform: none; widows: 2; word-spacing: 0px; -webkit-text-stroke-width: 0px; white-space: nowrap; background-color: rgb(251, 251, 251); text-decoration-thickness: initial; text-decoration-style: initial; text-decoration-color: initial; display: inline !important; float: none;&quot;&gt;1&lt;/span&gt;" style="text;whiteSpace=wrap;html=1;" vertex="1" parent="1">
          <mxGeometry x="555" y="478" width="40" height="40" as="geometry" />
        </mxCell>
        <mxCell id="5a1hey1uRcF0JdrdRJW9-46" value="Submissions" style="whiteSpace=wrap;html=1;align=center;fillColor=none;" vertex="1" parent="1">
          <mxGeometry x="595" y="744.41" width="100" height="40" as="geometry" />
        </mxCell>
        <mxCell id="5a1hey1uRcF0JdrdRJW9-47" style="edgeStyle=orthogonalEdgeStyle;rounded=0;orthogonalLoop=1;jettySize=auto;html=1;exitX=0.5;exitY=1;exitDx=0;exitDy=0;" edge="1" parent="1" source="5a1hey1uRcF0JdrdRJW9-7" target="5a1hey1uRcF0JdrdRJW9-7">
          <mxGeometry relative="1" as="geometry" />
        </mxCell>
        <mxCell id="5a1hey1uRcF0JdrdRJW9-48" value="" style="endArrow=none;html=1;rounded=0;entryX=0.5;entryY=1;entryDx=0;entryDy=0;exitX=0.5;exitY=0;exitDx=0;exitDy=0;" edge="1" parent="1" source="5a1hey1uRcF0JdrdRJW9-46" target="5a1hey1uRcF0JdrdRJW9-12">
          <mxGeometry relative="1" as="geometry">
            <mxPoint x="595" y="714.41" as="sourcePoint" />
            <mxPoint x="755" y="714.41" as="targetPoint" />
          </mxGeometry>
        </mxCell>
        <mxCell id="5a1hey1uRcF0JdrdRJW9-49" value="d" style="ellipse;whiteSpace=wrap;html=1;aspect=fixed;" vertex="1" parent="1">
          <mxGeometry x="635" y="814.41" width="20" height="20" as="geometry" />
        </mxCell>
        <mxCell id="5a1hey1uRcF0JdrdRJW9-50" value="" style="endArrow=none;html=1;rounded=0;entryX=0.5;entryY=1;entryDx=0;entryDy=0;exitX=0.5;exitY=0;exitDx=0;exitDy=0;" edge="1" parent="1" source="5a1hey1uRcF0JdrdRJW9-49" target="5a1hey1uRcF0JdrdRJW9-46">
          <mxGeometry relative="1" as="geometry">
            <mxPoint x="655" y="754.41" as="sourcePoint" />
            <mxPoint x="655" y="684.41" as="targetPoint" />
          </mxGeometry>
        </mxCell>
        <mxCell id="5a1hey1uRcF0JdrdRJW9-52" value="" style="verticalLabelPosition=bottom;verticalAlign=top;html=1;shape=mxgraph.basic.arc;startAngle=0.39112979695980993;endAngle=0.1;direction=north;rotation=45;" vertex="1" parent="1">
          <mxGeometry x="605" y="841.91" width="9.2" height="12.5" as="geometry" />
        </mxCell>
        <mxCell id="5a1hey1uRcF0JdrdRJW9-58" value="" style="verticalLabelPosition=bottom;verticalAlign=top;html=1;shape=mxgraph.basic.arc;startAngle=0.39112979695980993;endAngle=0.1;direction=west;rotation=45;" vertex="1" parent="1">
          <mxGeometry x="672.5" y="843.5600000000001" width="12.5" height="9.2" as="geometry" />
        </mxCell>
        <mxCell id="5a1hey1uRcF0JdrdRJW9-59" value="1" style="text;html=1;align=center;verticalAlign=middle;resizable=0;points=[];autosize=1;strokeColor=none;fillColor=none;" vertex="1" parent="1">
          <mxGeometry x="650" y="488" width="30" height="30" as="geometry" />
        </mxCell>
        <mxCell id="5a1hey1uRcF0JdrdRJW9-60" value="M" style="text;html=1;align=center;verticalAlign=middle;resizable=0;points=[];autosize=1;strokeColor=none;fillColor=none;" vertex="1" parent="1">
          <mxGeometry x="614.2" y="714.41" width="30" height="30" as="geometry" />
        </mxCell>
        <mxCell id="5a1hey1uRcF0JdrdRJW9-61" value="Trainee ID" style="ellipse;whiteSpace=wrap;html=1;align=center;fontStyle=4;" vertex="1" parent="1">
          <mxGeometry x="685" y="390" width="100" height="40" as="geometry" />
        </mxCell>
        <mxCell id="5a1hey1uRcF0JdrdRJW9-62" value="Name" style="ellipse;whiteSpace=wrap;html=1;align=center;" vertex="1" parent="1">
          <mxGeometry x="285" y="265" width="100" height="40" as="geometry" />
        </mxCell>
        <mxCell id="5a1hey1uRcF0JdrdRJW9-63" value="Address" style="ellipse;whiteSpace=wrap;html=1;align=center;" vertex="1" parent="1">
          <mxGeometry x="455" y="270" width="100" height="40" as="geometry" />
        </mxCell>
        <mxCell id="5a1hey1uRcF0JdrdRJW9-64" value="Phone number" style="ellipse;whiteSpace=wrap;html=1;align=center;" vertex="1" parent="1">
          <mxGeometry x="285" y="375" width="100" height="40" as="geometry" />
        </mxCell>
        <mxCell id="5a1hey1uRcF0JdrdRJW9-65" value="Date of Birth" style="ellipse;whiteSpace=wrap;html=1;align=center;" vertex="1" parent="1">
          <mxGeometry x="505" y="330" width="100" height="40" as="geometry" />
        </mxCell>
        <mxCell id="5a1hey1uRcF0JdrdRJW9-66" value="Trainer ID" style="ellipse;whiteSpace=wrap;html=1;align=center;fontStyle=4;" vertex="1" parent="1">
          <mxGeometry x="35" y="380" width="100" height="40" as="geometry" />
        </mxCell>
        <mxCell id="5a1hey1uRcF0JdrdRJW9-72" value="Email" style="ellipse;whiteSpace=wrap;html=1;align=center;" vertex="1" parent="1">
          <mxGeometry x="455" y="380" width="100" height="40" as="geometry" />
        </mxCell>
        <mxCell id="5a1hey1uRcF0JdrdRJW9-74" value="" style="endArrow=none;html=1;rounded=0;" edge="1" parent="1" source="5a1hey1uRcF0JdrdRJW9-66">
          <mxGeometry relative="1" as="geometry">
            <mxPoint x="185" y="520" as="sourcePoint" />
            <mxPoint x="155" y="450" as="targetPoint" />
          </mxGeometry>
        </mxCell>
        <mxCell id="5a1hey1uRcF0JdrdRJW9-80" value="" style="endArrow=none;html=1;rounded=0;exitX=0.32;exitY=1.075;exitDx=0;exitDy=0;exitPerimeter=0;" edge="1" parent="1" source="5a1hey1uRcF0JdrdRJW9-61" target="5a1hey1uRcF0JdrdRJW9-8">
          <mxGeometry relative="1" as="geometry">
            <mxPoint x="182" y="487" as="sourcePoint" />
            <mxPoint x="221" y="512" as="targetPoint" />
          </mxGeometry>
        </mxCell>
        <mxCell id="5a1hey1uRcF0JdrdRJW9-86" value="Person" style="whiteSpace=wrap;html=1;align=center;fillColor=none;" vertex="1" parent="1">
          <mxGeometry x="356.46" y="320" width="100" height="40" as="geometry" />
        </mxCell>
        <mxCell id="5a1hey1uRcF0JdrdRJW9-105" value="" style="endArrow=none;html=1;rounded=0;exitX=1;exitY=0.5;exitDx=0;exitDy=0;entryX=0;entryY=1;entryDx=0;entryDy=0;" edge="1" parent="1" source="5a1hey1uRcF0JdrdRJW9-9" target="5a1hey1uRcF0JdrdRJW9-107">
          <mxGeometry relative="1" as="geometry">
            <mxPoint x="313.5300000000001" y="479.93000000000006" as="sourcePoint" />
            <mxPoint x="395" y="430" as="targetPoint" />
            <Array as="points">
              <mxPoint x="325" y="470" />
            </Array>
          </mxGeometry>
        </mxCell>
        <mxCell id="5a1hey1uRcF0JdrdRJW9-106" value="" style="endArrow=none;html=1;rounded=0;exitX=0;exitY=0.5;exitDx=0;exitDy=0;" edge="1" parent="1" target="5a1hey1uRcF0JdrdRJW9-107" source="5a1hey1uRcF0JdrdRJW9-8">
          <mxGeometry relative="1" as="geometry">
            <mxPoint x="496.46000000000004" y="480" as="sourcePoint" />
            <mxPoint x="406.46000000000004" y="440" as="targetPoint" />
            <Array as="points">
              <mxPoint x="475" y="470" />
            </Array>
          </mxGeometry>
        </mxCell>
        <mxCell id="5a1hey1uRcF0JdrdRJW9-107" value="d" style="ellipse;whiteSpace=wrap;html=1;aspect=fixed;" vertex="1" parent="1">
          <mxGeometry x="396.46000000000004" y="410" width="20" height="20" as="geometry" />
        </mxCell>
        <mxCell id="5a1hey1uRcF0JdrdRJW9-108" value="" style="verticalLabelPosition=bottom;verticalAlign=top;html=1;shape=mxgraph.basic.arc;startAngle=0.39112979695980993;endAngle=0.1;direction=north;rotation=45;" vertex="1" parent="1">
          <mxGeometry x="366.46000000000004" y="437.5" width="9.2" height="12.5" as="geometry" />
        </mxCell>
        <mxCell id="5a1hey1uRcF0JdrdRJW9-109" value="" style="verticalLabelPosition=bottom;verticalAlign=top;html=1;shape=mxgraph.basic.arc;startAngle=0.39112979695980993;endAngle=0.1;direction=west;rotation=45;" vertex="1" parent="1">
          <mxGeometry x="433.96000000000004" y="439.1500000000001" width="12.5" height="9.2" as="geometry" />
        </mxCell>
        <mxCell id="5a1hey1uRcF0JdrdRJW9-111" value="" style="endArrow=none;html=1;rounded=0;entryX=0.5;entryY=0;entryDx=0;entryDy=0;exitX=0.5;exitY=1;exitDx=0;exitDy=0;" edge="1" parent="1" source="5a1hey1uRcF0JdrdRJW9-86" target="5a1hey1uRcF0JdrdRJW9-107">
          <mxGeometry relative="1" as="geometry">
            <mxPoint x="406" y="360" as="sourcePoint" />
            <mxPoint x="495" y="350" as="targetPoint" />
          </mxGeometry>
        </mxCell>
        <mxCell id="5a1hey1uRcF0JdrdRJW9-112" value="" style="endArrow=none;html=1;rounded=0;exitX=0.5;exitY=1;exitDx=0;exitDy=0;entryX=0.5;entryY=0;entryDx=0;entryDy=0;" edge="1" parent="1" source="5a1hey1uRcF0JdrdRJW9-21" target="5a1hey1uRcF0JdrdRJW9-86">
          <mxGeometry relative="1" as="geometry">
            <mxPoint x="416.46" y="280" as="sourcePoint" />
            <mxPoint x="417.46" y="330" as="targetPoint" />
          </mxGeometry>
        </mxCell>
        <mxCell id="5a1hey1uRcF0JdrdRJW9-113" value="Task ID" style="ellipse;whiteSpace=wrap;html=1;align=center;fontStyle=4;" vertex="1" parent="1">
          <mxGeometry x="45" y="700" width="100" height="40" as="geometry" />
        </mxCell>
        <mxCell id="5a1hey1uRcF0JdrdRJW9-114" value="Feedback ID" style="ellipse;whiteSpace=wrap;html=1;align=center;fontStyle=4;" vertex="1" parent="1">
          <mxGeometry x="35" y="90" width="100" height="40" as="geometry" />
        </mxCell>
        <mxCell id="5a1hey1uRcF0JdrdRJW9-115" value="Report ID" style="ellipse;whiteSpace=wrap;html=1;align=center;fontStyle=4;" vertex="1" parent="1">
          <mxGeometry x="715" y="48" width="100" height="40" as="geometry" />
        </mxCell>
        <mxCell id="5a1hey1uRcF0JdrdRJW9-116" value="Feedback Content" style="ellipse;whiteSpace=wrap;html=1;align=center;" vertex="1" parent="1">
          <mxGeometry x="145" y="80" width="100" height="40" as="geometry" />
        </mxCell>
        <mxCell id="5a1hey1uRcF0JdrdRJW9-117" value="Report Contents" style="ellipse;whiteSpace=wrap;html=1;align=center;" vertex="1" parent="1">
          <mxGeometry x="605" y="48" width="100" height="40" as="geometry" />
        </mxCell>
        <mxCell id="5a1hey1uRcF0JdrdRJW9-119" value="" style="endArrow=none;html=1;rounded=0;entryX=0.5;entryY=0;entryDx=0;entryDy=0;" edge="1" parent="1" target="5a1hey1uRcF0JdrdRJW9-13">
          <mxGeometry relative="1" as="geometry">
            <mxPoint x="355" y="136" as="sourcePoint" />
            <mxPoint x="275.0000000000002" y="799.9999999999998" as="targetPoint" />
            <Array as="points">
              <mxPoint x="275" y="136.09" />
              <mxPoint x="275" y="710" />
              <mxPoint x="316" y="710" />
            </Array>
          </mxGeometry>
        </mxCell>
        <mxCell id="5a1hey1uRcF0JdrdRJW9-120" value="" style="endArrow=none;html=1;rounded=0;exitX=0.5;exitY=0;exitDx=0;exitDy=0;" edge="1" parent="1">
          <mxGeometry relative="1" as="geometry">
            <mxPoint x="320.65999999999997" y="950" as="sourcePoint" />
            <mxPoint x="320" y="878" as="targetPoint" />
          </mxGeometry>
        </mxCell>
        <mxCell id="5a1hey1uRcF0JdrdRJW9-122" value="" style="endArrow=none;html=1;rounded=0;exitX=1;exitY=1;exitDx=0;exitDy=0;entryX=0.25;entryY=0;entryDx=0;entryDy=0;" edge="1" parent="1" source="5a1hey1uRcF0JdrdRJW9-114" target="5a1hey1uRcF0JdrdRJW9-6">
          <mxGeometry relative="1" as="geometry">
            <mxPoint x="205" y="320" as="sourcePoint" />
            <mxPoint x="365" y="320" as="targetPoint" />
          </mxGeometry>
        </mxCell>
        <mxCell id="5a1hey1uRcF0JdrdRJW9-123" value="" style="endArrow=none;html=1;rounded=0;exitX=0.411;exitY=0.992;exitDx=0;exitDy=0;entryX=0.5;entryY=0;entryDx=0;entryDy=0;exitPerimeter=0;" edge="1" parent="1" source="5a1hey1uRcF0JdrdRJW9-116" target="5a1hey1uRcF0JdrdRJW9-6">
          <mxGeometry relative="1" as="geometry">
            <mxPoint x="130" y="134" as="sourcePoint" />
            <mxPoint x="160" y="170" as="targetPoint" />
            <Array as="points" />
          </mxGeometry>
        </mxCell>
        <mxCell id="5a1hey1uRcF0JdrdRJW9-124" value="" style="endArrow=none;html=1;rounded=0;exitX=0.644;exitY=1.006;exitDx=0;exitDy=0;entryX=0.202;entryY=-0.019;entryDx=0;entryDy=0;entryPerimeter=0;exitPerimeter=0;" edge="1" parent="1" source="5a1hey1uRcF0JdrdRJW9-117" target="5a1hey1uRcF0JdrdRJW9-4">
          <mxGeometry relative="1" as="geometry">
            <mxPoint x="550" y="72" as="sourcePoint" />
            <mxPoint x="580" y="108" as="targetPoint" />
          </mxGeometry>
        </mxCell>
        <mxCell id="5a1hey1uRcF0JdrdRJW9-125" value="" style="endArrow=none;html=1;rounded=0;exitX=0.5;exitY=1;exitDx=0;exitDy=0;entryX=0.71;entryY=-0.039;entryDx=0;entryDy=0;entryPerimeter=0;" edge="1" parent="1" source="5a1hey1uRcF0JdrdRJW9-115" target="5a1hey1uRcF0JdrdRJW9-4">
          <mxGeometry relative="1" as="geometry">
            <mxPoint x="683" y="99" as="sourcePoint" />
            <mxPoint x="703" y="127" as="targetPoint" />
          </mxGeometry>
        </mxCell>
        <mxCell id="5a1hey1uRcF0JdrdRJW9-127" value="" style="endArrow=none;html=1;rounded=0;exitX=0.933;exitY=0.786;exitDx=0;exitDy=0;exitPerimeter=0;" edge="1" parent="1" source="5a1hey1uRcF0JdrdRJW9-113">
          <mxGeometry relative="1" as="geometry">
            <mxPoint x="5" y="740" as="sourcePoint" />
            <mxPoint x="155" y="750" as="targetPoint" />
            <Array as="points">
              <mxPoint x="155" y="750" />
            </Array>
          </mxGeometry>
        </mxCell>
        <mxCell id="5a1hey1uRcF0JdrdRJW9-128" value="Task Description" style="ellipse;whiteSpace=wrap;html=1;align=center;" vertex="1" parent="1">
          <mxGeometry x="25" y="812.76" width="100" height="40" as="geometry" />
        </mxCell>
        <mxCell id="5a1hey1uRcF0JdrdRJW9-129" value="" style="endArrow=none;html=1;rounded=0;entryX=0.25;entryY=1;entryDx=0;entryDy=0;" edge="1" parent="1" source="5a1hey1uRcF0JdrdRJW9-128" target="5a1hey1uRcF0JdrdRJW9-1">
          <mxGeometry relative="1" as="geometry">
            <mxPoint x="105" y="740" as="sourcePoint" />
            <mxPoint x="265" y="740" as="targetPoint" />
          </mxGeometry>
        </mxCell>
        <mxCell id="5a1hey1uRcF0JdrdRJW9-134" value="Deadline" style="ellipse;whiteSpace=wrap;html=1;align=center;" vertex="1" parent="1">
          <mxGeometry x="705" y="714.41" width="100" height="40" as="geometry" />
        </mxCell>
        <mxCell id="5a1hey1uRcF0JdrdRJW9-137" value="Medical ID" style="ellipse;whiteSpace=wrap;html=1;align=center;fontStyle=4;" vertex="1" parent="1">
          <mxGeometry x="735" y="950" width="100" height="40" as="geometry" />
        </mxCell>
        <mxCell id="5a1hey1uRcF0JdrdRJW9-138" value="Log ID" style="ellipse;whiteSpace=wrap;html=1;align=center;fontStyle=4;" vertex="1" parent="1">
          <mxGeometry x="455" y="950" width="100" height="40" as="geometry" />
        </mxCell>
        <mxCell id="5a1hey1uRcF0JdrdRJW9-139" value="" style="endArrow=none;html=1;rounded=0;entryX=0.5;entryY=1;entryDx=0;entryDy=0;exitX=0.678;exitY=0.001;exitDx=0;exitDy=0;exitPerimeter=0;" edge="1" parent="1" source="5a1hey1uRcF0JdrdRJW9-138" target="5a1hey1uRcF0JdrdRJW9-7">
          <mxGeometry relative="1" as="geometry">
            <mxPoint x="345" y="770" as="sourcePoint" />
            <mxPoint x="505" y="770" as="targetPoint" />
          </mxGeometry>
        </mxCell>
        <mxCell id="5a1hey1uRcF0JdrdRJW9-140" value="" style="endArrow=none;html=1;rounded=0;entryX=0.5;entryY=1;entryDx=0;entryDy=0;exitX=0;exitY=0;exitDx=0;exitDy=0;" edge="1" parent="1" source="5a1hey1uRcF0JdrdRJW9-137" target="5a1hey1uRcF0JdrdRJW9-2">
          <mxGeometry relative="1" as="geometry">
            <mxPoint x="533" y="960" as="sourcePoint" />
            <mxPoint x="565" y="934" as="targetPoint" />
          </mxGeometry>
        </mxCell>
        <mxCell id="5a1hey1uRcF0JdrdRJW9-141" value="" style="endArrow=none;html=1;rounded=0;exitX=1;exitY=0.5;exitDx=0;exitDy=0;" edge="1" parent="1" source="5a1hey1uRcF0JdrdRJW9-46" target="5a1hey1uRcF0JdrdRJW9-134">
          <mxGeometry relative="1" as="geometry">
            <mxPoint x="415" y="680" as="sourcePoint" />
            <mxPoint x="575" y="680" as="targetPoint" />
          </mxGeometry>
        </mxCell>
        <mxCell id="5a1hey1uRcF0JdrdRJW9-142" value="Administrator ID" style="ellipse;whiteSpace=wrap;html=1;align=center;fontStyle=4;" vertex="1" parent="1">
          <mxGeometry x="345" y="40" width="100" height="40" as="geometry" />
        </mxCell>
        <mxCell id="5a1hey1uRcF0JdrdRJW9-143" value="Name" style="ellipse;whiteSpace=wrap;html=1;align=center;" vertex="1" parent="1">
          <mxGeometry x="435.00000000000006" y="68" width="100" height="40" as="geometry" />
        </mxCell>
        <mxCell id="5a1hey1uRcF0JdrdRJW9-144" value="" style="endArrow=none;html=1;rounded=0;entryX=0.344;entryY=-0.009;entryDx=0;entryDy=0;entryPerimeter=0;" edge="1" parent="1" source="5a1hey1uRcF0JdrdRJW9-142" target="5a1hey1uRcF0JdrdRJW9-5">
          <mxGeometry relative="1" as="geometry">
            <mxPoint x="365" y="188" as="sourcePoint" />
            <mxPoint x="525" y="188" as="targetPoint" />
          </mxGeometry>
        </mxCell>
        <mxCell id="5a1hey1uRcF0JdrdRJW9-145" value="" style="endArrow=none;html=1;rounded=0;entryX=0;entryY=1;entryDx=0;entryDy=0;exitX=0.75;exitY=0;exitDx=0;exitDy=0;" edge="1" parent="1" source="5a1hey1uRcF0JdrdRJW9-5" target="5a1hey1uRcF0JdrdRJW9-143">
          <mxGeometry relative="1" as="geometry">
            <mxPoint x="335" y="148" as="sourcePoint" />
            <mxPoint x="495" y="148" as="targetPoint" />
          </mxGeometry>
        </mxCell>
        <mxCell id="5a1hey1uRcF0JdrdRJW9-146" value="1" style="text;html=1;align=center;verticalAlign=middle;resizable=0;points=[];autosize=1;strokeColor=none;fillColor=none;" vertex="1" parent="1">
          <mxGeometry x="145" y="415" width="30" height="30" as="geometry" />
        </mxCell>
        <mxCell id="5a1hey1uRcF0JdrdRJW9-148" value="M" style="text;html=1;align=center;verticalAlign=middle;resizable=0;points=[];autosize=1;strokeColor=none;fillColor=none;" vertex="1" parent="1">
          <mxGeometry x="175" y="200" width="30" height="30" as="geometry" />
        </mxCell>
        <mxCell id="5a1hey1uRcF0JdrdRJW9-149" value="1" style="text;html=1;align=center;verticalAlign=middle;resizable=0;points=[];autosize=1;strokeColor=none;fillColor=none;" vertex="1" parent="1">
          <mxGeometry x="446.46" y="108" width="30" height="30" as="geometry" />
        </mxCell>
        <mxCell id="5a1hey1uRcF0JdrdRJW9-150" value="M" style="text;html=1;align=center;verticalAlign=middle;resizable=0;points=[];autosize=1;strokeColor=none;fillColor=none;" vertex="1" parent="1">
          <mxGeometry x="642.5" y="138" width="30" height="30" as="geometry" />
        </mxCell>
        <mxCell id="5a1hey1uRcF0JdrdRJW9-151" value="M" style="text;html=1;align=center;verticalAlign=middle;resizable=0;points=[];autosize=1;strokeColor=none;fillColor=none;" vertex="1" parent="1">
          <mxGeometry x="396.46" y="275" width="30" height="30" as="geometry" />
        </mxCell>
        <mxCell id="5a1hey1uRcF0JdrdRJW9-152" value="1" style="text;html=1;align=center;verticalAlign=middle;resizable=0;points=[];autosize=1;strokeColor=none;fillColor=none;" vertex="1" parent="1">
          <mxGeometry x="400" y="158" width="30" height="30" as="geometry" />
        </mxCell>
        <mxCell id="5a1hey1uRcF0JdrdRJW9-155" style="edgeStyle=orthogonalEdgeStyle;rounded=0;orthogonalLoop=1;jettySize=auto;html=1;exitX=0.5;exitY=1;exitDx=0;exitDy=0;" edge="1" parent="1" source="5a1hey1uRcF0JdrdRJW9-72" target="5a1hey1uRcF0JdrdRJW9-72">
          <mxGeometry relative="1" as="geometry" />
        </mxCell>
        <mxCell id="5a1hey1uRcF0JdrdRJW9-156" value="" style="endArrow=none;html=1;rounded=0;exitX=1;exitY=1;exitDx=0;exitDy=0;entryX=0.309;entryY=0.033;entryDx=0;entryDy=0;entryPerimeter=0;" edge="1" parent="1" source="5a1hey1uRcF0JdrdRJW9-62" target="5a1hey1uRcF0JdrdRJW9-86">
          <mxGeometry relative="1" as="geometry">
            <mxPoint x="385" y="350" as="sourcePoint" />
            <mxPoint x="545" y="350" as="targetPoint" />
          </mxGeometry>
        </mxCell>
        <mxCell id="5a1hey1uRcF0JdrdRJW9-158" value="" style="endArrow=none;html=1;rounded=0;exitX=0.804;exitY=0.092;exitDx=0;exitDy=0;exitPerimeter=0;entryX=0.25;entryY=1;entryDx=0;entryDy=0;" edge="1" parent="1" source="5a1hey1uRcF0JdrdRJW9-64" target="5a1hey1uRcF0JdrdRJW9-86">
          <mxGeometry relative="1" as="geometry">
            <mxPoint x="365" y="360" as="sourcePoint" />
            <mxPoint x="525" y="360" as="targetPoint" />
          </mxGeometry>
        </mxCell>
        <mxCell id="5a1hey1uRcF0JdrdRJW9-159" value="" style="endArrow=none;html=1;rounded=0;entryX=0.017;entryY=0.653;entryDx=0;entryDy=0;entryPerimeter=0;exitX=0.794;exitY=-0.017;exitDx=0;exitDy=0;exitPerimeter=0;" edge="1" parent="1" source="5a1hey1uRcF0JdrdRJW9-86" target="5a1hey1uRcF0JdrdRJW9-63">
          <mxGeometry relative="1" as="geometry">
            <mxPoint x="345" y="360" as="sourcePoint" />
            <mxPoint x="505" y="360" as="targetPoint" />
          </mxGeometry>
        </mxCell>
        <mxCell id="5a1hey1uRcF0JdrdRJW9-160" value="" style="endArrow=none;html=1;rounded=0;entryX=0;entryY=0.5;entryDx=0;entryDy=0;exitX=1;exitY=0.5;exitDx=0;exitDy=0;" edge="1" parent="1" source="5a1hey1uRcF0JdrdRJW9-86" target="5a1hey1uRcF0JdrdRJW9-65">
          <mxGeometry relative="1" as="geometry">
            <mxPoint x="446" y="329" as="sourcePoint" />
            <mxPoint x="468" y="311" as="targetPoint" />
          </mxGeometry>
        </mxCell>
        <mxCell id="5a1hey1uRcF0JdrdRJW9-161" value="" style="endArrow=none;html=1;rounded=0;entryX=0;entryY=0;entryDx=0;entryDy=0;exitX=0.848;exitY=0.993;exitDx=0;exitDy=0;exitPerimeter=0;" edge="1" parent="1" source="5a1hey1uRcF0JdrdRJW9-86" target="5a1hey1uRcF0JdrdRJW9-72">
          <mxGeometry relative="1" as="geometry">
            <mxPoint x="467" y="344" as="sourcePoint" />
            <mxPoint x="515" y="360" as="targetPoint" />
          </mxGeometry>
        </mxCell>
        <mxCell id="5a1hey1uRcF0JdrdRJW9-162" value="M" style="text;html=1;align=center;verticalAlign=middle;resizable=0;points=[];autosize=1;strokeColor=none;fillColor=none;" vertex="1" parent="1">
          <mxGeometry x="170" y="728" width="30" height="30" as="geometry" />
        </mxCell>
        <mxCell id="5a1hey1uRcF0JdrdRJW9-163" value="Email" style="ellipse;whiteSpace=wrap;html=1;align=center;" vertex="1" parent="1">
          <mxGeometry x="256.46000000000004" y="68" width="100" height="40" as="geometry" />
        </mxCell>
        <mxCell id="5a1hey1uRcF0JdrdRJW9-165" value="" style="endArrow=none;html=1;rounded=0;exitX=0.143;exitY=-0.003;exitDx=0;exitDy=0;entryX=1;entryY=1;entryDx=0;entryDy=0;exitPerimeter=0;" edge="1" parent="1" source="5a1hey1uRcF0JdrdRJW9-5" target="5a1hey1uRcF0JdrdRJW9-163">
          <mxGeometry relative="1" as="geometry">
            <mxPoint x="325" y="108" as="sourcePoint" />
            <mxPoint x="314" y="148" as="targetPoint" />
            <Array as="points" />
          </mxGeometry>
        </mxCell>
        <mxCell id="5a1hey1uRcF0JdrdRJW9-166" value="Trainee ID" style="ellipse;whiteSpace=wrap;html=1;align=center;" vertex="1" parent="1">
          <mxGeometry x="25" y="210" width="100" height="40" as="geometry" />
        </mxCell>
        <mxCell id="5a1hey1uRcF0JdrdRJW9-167" value="Trainer ID" style="ellipse;whiteSpace=wrap;html=1;align=center;" vertex="1" parent="1">
          <mxGeometry x="15" y="148" width="100" height="40" as="geometry" />
        </mxCell>
        <mxCell id="5a1hey1uRcF0JdrdRJW9-168" value="" style="endArrow=none;html=1;rounded=0;exitX=0;exitY=0.25;exitDx=0;exitDy=0;entryX=1;entryY=0.5;entryDx=0;entryDy=0;" edge="1" parent="1" source="5a1hey1uRcF0JdrdRJW9-6" target="5a1hey1uRcF0JdrdRJW9-167">
          <mxGeometry relative="1" as="geometry">
            <mxPoint x="196" y="130" as="sourcePoint" />
            <mxPoint x="185" y="170" as="targetPoint" />
            <Array as="points" />
          </mxGeometry>
        </mxCell>
        <mxCell id="5a1hey1uRcF0JdrdRJW9-169" value="" style="endArrow=none;html=1;rounded=0;exitX=0.947;exitY=0.3;exitDx=0;exitDy=0;entryX=0.25;entryY=1;entryDx=0;entryDy=0;exitPerimeter=0;" edge="1" parent="1" source="5a1hey1uRcF0JdrdRJW9-166" target="5a1hey1uRcF0JdrdRJW9-6">
          <mxGeometry relative="1" as="geometry">
            <mxPoint x="206" y="140" as="sourcePoint" />
            <mxPoint x="195" y="180" as="targetPoint" />
            <Array as="points" />
          </mxGeometry>
        </mxCell>
        <mxCell id="5a1hey1uRcF0JdrdRJW9-170" value="Trainee ID" style="ellipse;whiteSpace=wrap;html=1;align=center;" vertex="1" parent="1">
          <mxGeometry x="670" y="650" width="100" height="40" as="geometry" />
        </mxCell>
        <mxCell id="5a1hey1uRcF0JdrdRJW9-171" value="Content" style="ellipse;whiteSpace=wrap;html=1;align=center;" vertex="1" parent="1">
          <mxGeometry x="390.21000000000004" y="900" width="100" height="40" as="geometry" />
        </mxCell>
        <mxCell id="5a1hey1uRcF0JdrdRJW9-172" value="Submission Date" style="ellipse;whiteSpace=wrap;html=1;align=center;" vertex="1" parent="1">
          <mxGeometry x="705" y="794.41" width="100" height="40" as="geometry" />
        </mxCell>
        <mxCell id="5a1hey1uRcF0JdrdRJW9-173" value="" style="endArrow=none;html=1;rounded=0;entryX=0;entryY=0.25;entryDx=0;entryDy=0;exitX=0.933;exitY=0.259;exitDx=0;exitDy=0;exitPerimeter=0;" edge="1" parent="1" source="5a1hey1uRcF0JdrdRJW9-171" target="5a1hey1uRcF0JdrdRJW9-7">
          <mxGeometry relative="1" as="geometry">
            <mxPoint x="533" y="960" as="sourcePoint" />
            <mxPoint x="565" y="934" as="targetPoint" />
          </mxGeometry>
        </mxCell>
        <mxCell id="5a1hey1uRcF0JdrdRJW9-174" value="" style="endArrow=none;html=1;rounded=0;entryX=1;entryY=0.75;entryDx=0;entryDy=0;exitX=0;exitY=0.5;exitDx=0;exitDy=0;" edge="1" parent="1" source="5a1hey1uRcF0JdrdRJW9-172" target="5a1hey1uRcF0JdrdRJW9-46">
          <mxGeometry relative="1" as="geometry">
            <mxPoint x="543" y="970" as="sourcePoint" />
            <mxPoint x="575" y="944" as="targetPoint" />
          </mxGeometry>
        </mxCell>
        <mxCell id="5a1hey1uRcF0JdrdRJW9-175" value="" style="endArrow=none;html=1;rounded=0;entryX=0.63;entryY=0.048;entryDx=0;entryDy=0;exitX=0.257;exitY=0.959;exitDx=0;exitDy=0;entryPerimeter=0;exitPerimeter=0;" edge="1" parent="1" source="5a1hey1uRcF0JdrdRJW9-170" target="5a1hey1uRcF0JdrdRJW9-46">
          <mxGeometry relative="1" as="geometry">
            <mxPoint x="553" y="980" as="sourcePoint" />
            <mxPoint x="585" y="954" as="targetPoint" />
          </mxGeometry>
        </mxCell>
        <mxCell id="5a1hey1uRcF0JdrdRJW9-177" value="Status" style="ellipse;whiteSpace=wrap;html=1;align=center;" vertex="1" parent="1">
          <mxGeometry x="607.5" y="950" width="100" height="40" as="geometry" />
        </mxCell>
        <mxCell id="5a1hey1uRcF0JdrdRJW9-178" value="" style="endArrow=none;html=1;rounded=0;entryX=0.25;entryY=1;entryDx=0;entryDy=0;exitX=1;exitY=0;exitDx=0;exitDy=0;" edge="1" parent="1" source="5a1hey1uRcF0JdrdRJW9-177" target="5a1hey1uRcF0JdrdRJW9-2">
          <mxGeometry relative="1" as="geometry">
            <mxPoint x="760" y="966" as="sourcePoint" />
            <mxPoint x="745" y="934" as="targetPoint" />
          </mxGeometry>
        </mxCell>
        <mxCell id="5a1hey1uRcF0JdrdRJW9-179" value="Deadline" style="ellipse;whiteSpace=wrap;html=1;align=center;" vertex="1" parent="1">
          <mxGeometry x="125" y="841.91" width="100" height="40" as="geometry" />
        </mxCell>
        <mxCell id="5a1hey1uRcF0JdrdRJW9-180" value="Task Title" style="ellipse;whiteSpace=wrap;html=1;align=center;" vertex="1" parent="1">
          <mxGeometry x="15" y="750" width="100" height="40" as="geometry" />
        </mxCell>
        <mxCell id="5a1hey1uRcF0JdrdRJW9-181" value="" style="endArrow=none;html=1;rounded=0;entryX=0.543;entryY=1.063;entryDx=0;entryDy=0;entryPerimeter=0;exitX=0.549;exitY=0.017;exitDx=0;exitDy=0;exitPerimeter=0;" edge="1" parent="1" source="5a1hey1uRcF0JdrdRJW9-179" target="5a1hey1uRcF0JdrdRJW9-1">
          <mxGeometry relative="1" as="geometry">
            <mxPoint x="114" y="826" as="sourcePoint" />
            <mxPoint x="160" y="800" as="targetPoint" />
          </mxGeometry>
        </mxCell>
        <mxCell id="5a1hey1uRcF0JdrdRJW9-182" value="" style="endArrow=none;html=1;rounded=0;entryX=1;entryY=0.5;entryDx=0;entryDy=0;exitX=0;exitY=0.5;exitDx=0;exitDy=0;" edge="1" parent="1" source="5a1hey1uRcF0JdrdRJW9-1" target="5a1hey1uRcF0JdrdRJW9-180">
          <mxGeometry relative="1" as="geometry">
            <mxPoint x="124" y="836" as="sourcePoint" />
            <mxPoint x="170" y="810" as="targetPoint" />
          </mxGeometry>
        </mxCell>
        <mxCell id="5a1hey1uRcF0JdrdRJW9-184" value="Trainee ID" style="ellipse;whiteSpace=wrap;html=1;align=center;" vertex="1" parent="1">
          <mxGeometry x="670" y="180" width="100" height="40" as="geometry" />
        </mxCell>
        <mxCell id="5a1hey1uRcF0JdrdRJW9-185" value="" style="endArrow=none;html=1;rounded=0;entryX=0.5;entryY=1;entryDx=0;entryDy=0;exitX=0.5;exitY=0;exitDx=0;exitDy=0;" edge="1" parent="1" source="5a1hey1uRcF0JdrdRJW9-184" target="5a1hey1uRcF0JdrdRJW9-4">
          <mxGeometry relative="1" as="geometry">
            <mxPoint x="723" y="180" as="sourcePoint" />
            <mxPoint x="754" y="126" as="targetPoint" />
          </mxGeometry>
        </mxCell>
        <mxCell id="5a1hey1uRcF0JdrdRJW9-186" value="Date" style="ellipse;whiteSpace=wrap;html=1;align=center;" vertex="1" parent="1">
          <mxGeometry x="346.46000000000004" y="1000" width="100" height="40" as="geometry" />
        </mxCell>
        <mxCell id="5a1hey1uRcF0JdrdRJW9-187" value="Event description" style="ellipse;whiteSpace=wrap;html=1;align=center;" vertex="1" parent="1">
          <mxGeometry x="245.00000000000003" y="1030" width="100" height="40" as="geometry" />
        </mxCell>
        <mxCell id="5a1hey1uRcF0JdrdRJW9-188" value="Event ID" style="ellipse;whiteSpace=wrap;html=1;align=center;fontStyle=4;" vertex="1" parent="1">
          <mxGeometry x="144.99999999999997" y="990" width="100" height="40" as="geometry" />
        </mxCell>
        <mxCell id="5a1hey1uRcF0JdrdRJW9-189" value="" style="endArrow=none;html=1;rounded=0;entryX=0;entryY=0.75;entryDx=0;entryDy=0;exitX=1;exitY=0;exitDx=0;exitDy=0;" edge="1" parent="1" source="5a1hey1uRcF0JdrdRJW9-188" target="5a1hey1uRcF0JdrdRJW9-3">
          <mxGeometry relative="1" as="geometry">
            <mxPoint x="494" y="920" as="sourcePoint" />
            <mxPoint x="515" y="904" as="targetPoint" />
          </mxGeometry>
        </mxCell>
        <mxCell id="5a1hey1uRcF0JdrdRJW9-190" value="" style="endArrow=none;html=1;rounded=0;entryX=0.357;entryY=0.995;entryDx=0;entryDy=0;exitX=0.55;exitY=0;exitDx=0;exitDy=0;exitPerimeter=0;entryPerimeter=0;" edge="1" parent="1" source="5a1hey1uRcF0JdrdRJW9-187" target="5a1hey1uRcF0JdrdRJW9-3">
          <mxGeometry relative="1" as="geometry">
            <mxPoint x="249" y="1007" as="sourcePoint" />
            <mxPoint x="276" y="990" as="targetPoint" />
          </mxGeometry>
        </mxCell>
        <mxCell id="5a1hey1uRcF0JdrdRJW9-191" value="" style="endArrow=none;html=1;rounded=0;entryX=0.75;entryY=1;entryDx=0;entryDy=0;" edge="1" parent="1" source="5a1hey1uRcF0JdrdRJW9-186" target="5a1hey1uRcF0JdrdRJW9-3">
          <mxGeometry relative="1" as="geometry">
            <mxPoint x="259" y="1017" as="sourcePoint" />
            <mxPoint x="286" y="1000" as="targetPoint" />
          </mxGeometry>
        </mxCell>
        <mxCell id="5a1hey1uRcF0JdrdRJW9-192" value="1" style="text;html=1;align=center;verticalAlign=middle;resizable=0;points=[];autosize=1;strokeColor=none;fillColor=none;" vertex="1" parent="1">
          <mxGeometry x="326.46" y="138" width="30" height="30" as="geometry" />
        </mxCell>
        <mxCell id="5a1hey1uRcF0JdrdRJW9-193" value="M" style="text;html=1;align=center;verticalAlign=middle;resizable=0;points=[];autosize=1;strokeColor=none;fillColor=none;" vertex="1" parent="1">
          <mxGeometry x="285" y="920" width="30" height="30" as="geometry" />
        </mxCell>
        <mxCell id="5a1hey1uRcF0JdrdRJW9-196" value="" style="endArrow=none;html=1;rounded=0;entryX=0.5;entryY=0;entryDx=0;entryDy=0;exitX=0.75;exitY=1;exitDx=0;exitDy=0;" edge="1" parent="1" source="5a1hey1uRcF0JdrdRJW9-9" target="5a1hey1uRcF0JdrdRJW9-197">
          <mxGeometry relative="1" as="geometry">
            <mxPoint x="230" y="480" as="sourcePoint" />
            <mxPoint x="410" y="489" as="targetPoint" />
            <Array as="points">
              <mxPoint x="200" y="520" />
              <mxPoint x="385" y="520" />
            </Array>
          </mxGeometry>
        </mxCell>
        <mxCell id="5a1hey1uRcF0JdrdRJW9-197" value="review" style="shape=rhombus;perimeter=rhombusPerimeter;whiteSpace=wrap;html=1;align=center;fillColor=none;" vertex="1" parent="1">
          <mxGeometry x="325" y="550" width="120" height="60" as="geometry" />
        </mxCell>
        <mxCell id="5a1hey1uRcF0JdrdRJW9-199" value="" style="endArrow=none;html=1;rounded=0;exitX=1;exitY=0.5;exitDx=0;exitDy=0;entryX=0.25;entryY=0.14;entryDx=0;entryDy=0;entryPerimeter=0;" edge="1" parent="1" source="5a1hey1uRcF0JdrdRJW9-197" target="5a1hey1uRcF0JdrdRJW9-7">
          <mxGeometry relative="1" as="geometry">
            <mxPoint x="400" y="720" as="sourcePoint" />
            <mxPoint x="530" y="880" as="targetPoint" />
            <Array as="points">
              <mxPoint x="530" y="580" />
            </Array>
          </mxGeometry>
        </mxCell>
        <mxCell id="5a1hey1uRcF0JdrdRJW9-200" value="M" style="text;html=1;align=center;verticalAlign=middle;resizable=0;points=[];autosize=1;strokeColor=none;fillColor=none;" vertex="1" parent="1">
          <mxGeometry x="505" y="858" width="30" height="30" as="geometry" />
        </mxCell>
        <mxCell id="5a1hey1uRcF0JdrdRJW9-201" value="1" style="text;html=1;align=center;verticalAlign=middle;resizable=0;points=[];autosize=1;strokeColor=none;fillColor=none;" vertex="1" parent="1">
          <mxGeometry x="195" y="488" width="30" height="30" as="geometry" />
        </mxCell>
        <mxCell id="5a1hey1uRcF0JdrdRJW9-202" value="" style="endArrow=none;html=1;rounded=0;exitX=1;exitY=0.5;exitDx=0;exitDy=0;entryX=1;entryY=0.5;entryDx=0;entryDy=0;" edge="1" parent="1" source="5a1hey1uRcF0JdrdRJW9-204" target="5a1hey1uRcF0JdrdRJW9-2">
          <mxGeometry relative="1" as="geometry">
            <mxPoint x="250" y="290" as="sourcePoint" />
            <mxPoint x="780" y="330" as="targetPoint" />
            <Array as="points">
              <mxPoint x="830" y="260" />
              <mxPoint x="830" y="904" />
            </Array>
          </mxGeometry>
        </mxCell>
        <mxCell id="5a1hey1uRcF0JdrdRJW9-205" value="" style="endArrow=none;html=1;rounded=0;exitX=0.908;exitY=1.032;exitDx=0;exitDy=0;entryX=0;entryY=0.5;entryDx=0;entryDy=0;exitPerimeter=0;" edge="1" parent="1" source="5a1hey1uRcF0JdrdRJW9-5" target="5a1hey1uRcF0JdrdRJW9-204">
          <mxGeometry relative="1" as="geometry">
            <mxPoint x="445" y="159" as="sourcePoint" />
            <mxPoint x="785" y="904" as="targetPoint" />
            <Array as="points" />
          </mxGeometry>
        </mxCell>
        <mxCell id="5a1hey1uRcF0JdrdRJW9-204" value="approve/reject" style="shape=rhombus;perimeter=rhombusPerimeter;whiteSpace=wrap;html=1;align=center;fillColor=none;" vertex="1" parent="1">
          <mxGeometry x="635" y="230" width="120" height="60" as="geometry" />
        </mxCell>
        <mxCell id="5a1hey1uRcF0JdrdRJW9-206" value="M" style="text;html=1;align=center;verticalAlign=middle;resizable=0;points=[];autosize=1;strokeColor=none;fillColor=none;" vertex="1" parent="1">
          <mxGeometry x="785" y="878" width="30" height="30" as="geometry" />
        </mxCell>
        <mxCell id="5a1hey1uRcF0JdrdRJW9-207" value="1" style="text;html=1;align=center;verticalAlign=middle;resizable=0;points=[];autosize=1;strokeColor=none;fillColor=none;" vertex="1" parent="1">
          <mxGeometry x="455" y="148" width="30" height="30" as="geometry" />
        </mxCell>
      </root>
    </mxGraphModel>
  </diagram>
</mxfile>
